<?xml version="1.0" encoding="UTF-8"?>
<!DOCTYPE svg PUBLIC "-//W3C//DTD SVG 1.1//EN" "http://www.w3.org/Graphics/SVG/1.1/DTD/svg11.dtd">
<svg xmlns="http://www.w3.org/2000/svg" version="1.1" width="182px" height="158px" style="shape-rendering:geometricPrecision; text-rendering:geometricPrecision; image-rendering:optimizeQuality; fill-rule:evenodd; clip-rule:evenodd" xmlns:xlink="http://www.w3.org/1999/xlink">
<g><path style="opacity:0.239" fill="#a13cb2" d="M 48.5,52.5 C 48.5,52.1667 48.5,51.8333 48.5,51.5C 49.1667,51.5 49.8333,51.5 50.5,51.5C 53.1667,52.8333 55.8333,52.8333 58.5,51.5C 58.5,51.8333 58.5,52.1667 58.5,52.5C 58.8333,53.1667 59.1667,53.8333 59.5,54.5C 58.8333,54.8333 58.1667,55.1667 57.5,55.5C 54.984,53.6767 51.984,52.6767 48.5,52.5 Z"/></g>
<g><path style="opacity:0.267" fill="#7e2e60" d="M 67.5,48.5 C 68.7759,49.3864 68.7759,50.3864 67.5,51.5C 64.6897,52.1992 62.023,53.1992 59.5,54.5C 59.1667,53.8333 58.8333,53.1667 58.5,52.5C 59.791,52.7373 60.791,52.404 61.5,51.5C 62.791,51.7373 63.791,51.404 64.5,50.5C 66.0269,50.573 67.0269,49.9063 67.5,48.5 Z"/></g>
<g><path style="opacity:1" fill="#601dd9" d="M 48.5,52.5 C 51.984,52.6767 54.984,53.6767 57.5,55.5C 53.6733,57.246 50.0066,59.246 46.5,61.5C 45.5,61.5 44.5,61.5 43.5,61.5C 43.8897,58.1606 44.3897,54.8273 45,51.5C 46.0113,52.3366 47.1779,52.67 48.5,52.5 Z"/></g>
<g><path style="opacity:0.775" fill="#e84242" d="M 69.5,63.5 C 81.8333,63.5 94.1667,63.5 106.5,63.5C 106.827,72.6822 106.493,81.6822 105.5,90.5C 105.5,81.8333 105.5,73.1667 105.5,64.5C 93.3217,64.8284 81.3217,64.4951 69.5,63.5 Z"/></g>
<g><path style="opacity:1" fill="#fd3231" d="M 79.5,52.5 C 83.226,52.1774 86.8927,52.5108 90.5,53.5C 90.0233,54.4776 89.3567,55.3109 88.5,56C 84.3673,55.9064 80.7006,56.7397 77.5,58.5C 75.1409,59.176 72.8076,60.0093 70.5,61C 69.7476,61.6708 69.4142,62.5041 69.5,63.5C 81.3217,64.4951 93.3217,64.8284 105.5,64.5C 105.5,73.1667 105.5,81.8333 105.5,90.5C 93.3217,90.1716 81.3217,90.5049 69.5,91.5C 68.5048,103.655 68.1714,115.989 68.5,128.5C 59.8333,128.5 51.1667,128.5 42.5,128.5C 42.8286,115.989 42.4952,103.655 41.5,91.5C 38.3714,89.9562 36.2047,90.9562 35,94.5C 32.2778,102.61 30.7778,110.943 30.5,119.5C 30.3957,121.973 29.3957,122.639 27.5,121.5C 26.5033,114.866 26.17,108.2 26.5,101.5C 30.2264,80.8912 41.5598,66.0579 60.5,57C 66.5888,54.3943 72.9221,52.8943 79.5,52.5 Z"/></g>
<g><path style="opacity:1" fill="#5d17e8" d="M 6.5,64.5 C 17.1667,64.5 27.8333,64.5 38.5,64.5C 38.1193,65.9311 37.1193,66.7645 35.5,67C 35.9662,68.2988 35.9662,69.7988 35.5,71.5C 34.5,71.5 33.5,71.5 32.5,71.5C 30.3252,75.9452 28.6586,80.6119 27.5,85.5C 27.5674,86.9587 27.2341,88.2921 26.5,89.5C 19.8333,89.5 13.1667,89.5 6.5,89.5C 6.5,81.1667 6.5,72.8333 6.5,64.5 Z"/></g>
<g><path style="opacity:1" fill="#5f26c5" d="M 45.5,48.5 C 45.5,49.1667 45.8333,49.5 46.5,49.5C 46.8417,50.3382 47.5084,50.6716 48.5,50.5C 48.5,50.8333 48.5,51.1667 48.5,51.5C 48.5,51.8333 48.5,52.1667 48.5,52.5C 47.1779,52.67 46.0113,52.3366 45,51.5C 44.3897,54.8273 43.8897,58.1606 43.5,61.5C 44.5,61.5 45.5,61.5 46.5,61.5C 38.6742,68.325 32.3409,76.325 27.5,85.5C 28.6586,80.6119 30.3252,75.9452 32.5,71.5C 33.5,71.5 34.5,71.5 35.5,71.5C 35.9662,69.7988 35.9662,68.2988 35.5,67C 37.1193,66.7645 38.1193,65.9311 38.5,64.5C 39.7079,63.7659 41.0413,63.4326 42.5,63.5C 42.334,58.1563 42.5006,52.8229 43,47.5C 43.6708,48.2524 44.5041,48.5858 45.5,48.5 Z"/></g>
<g><path style="opacity:1" fill="#e63a3b" d="M 77.5,58.5 C 80.7006,56.7397 84.3673,55.9064 88.5,56C 89.3567,55.3109 90.0233,54.4776 90.5,53.5C 86.8927,52.5108 83.226,52.1774 79.5,52.5C 91.193,50.9478 102.526,52.7811 113.5,58C 122.112,63.6125 130.446,69.6125 138.5,76C 147.827,82.3345 157.493,83.0011 167.5,78C 175.36,70.079 178.194,60.579 176,49.5C 171.299,33.1307 160.799,22.2974 144.5,17C 122.021,8.82417 100.021,9.82417 78.5,20C 76.04,21.4578 73.8734,23.2911 72,25.5C 74.9761,34.0093 73.4761,41.676 67.5,48.5C 65.9731,48.427 64.9731,49.0937 64.5,50.5C 63.209,50.2627 62.209,50.596 61.5,51.5C 60.5,51.5 59.5,51.5 58.5,51.5C 55.8333,52.8333 53.1667,52.8333 50.5,51.5C 50.1583,50.6618 49.4916,50.3284 48.5,50.5C 48.1583,49.6618 47.4916,49.3284 46.5,49.5C 45.8333,49.5 45.5,49.1667 45.5,48.5C 38.9256,41.4082 37.759,33.4082 42,24.5C 50.5458,15.9406 59.7125,15.274 69.5,22.5C 82.5032,12.3338 97.3366,7.66713 114,8.5C 136.062,8.18271 155.062,15.516 171,30.5C 180.62,44.4115 181.953,59.0782 175,74.5C 168.581,82.9081 160.081,86.0748 149.5,84C 138.919,80.4249 129.585,74.7582 121.5,67C 107.883,58.6753 93.2167,55.8419 77.5,58.5 Z M 67.5,48.5 C 67.0269,49.9063 66.0269,50.573 64.5,50.5C 64.9731,49.0937 65.9731,48.427 67.5,48.5 Z M 51.5,21.5 C 66.0092,20.8368 71.5092,27.5035 68,41.5C 63.4703,47.1706 57.637,49.004 50.5,47C 40.2562,38.2903 40.5896,29.7903 51.5,21.5 Z"/></g>
<g><path style="opacity:1" fill="#6624c5" d="M 52.5,44.5 C 56.0794,44.6837 59.4127,44.017 62.5,42.5C 65.4642,36.9034 65.1308,31.5701 61.5,26.5C 55.4364,24.2356 50.4364,25.5689 46.5,30.5C 50.4829,23.2701 56.1496,21.7701 63.5,26C 69.0004,32.3288 68.6671,38.3288 62.5,44C 59.1056,45.6841 55.7723,45.8508 52.5,44.5 Z"/></g>
<g><path style="opacity:1" fill="#5d17e9" d="M 52.5,44.5 C 52.5858,43.5041 52.2524,42.6708 51.5,42C 50.2341,41.6905 49.0674,41.1905 48,40.5C 46.8011,37.2744 46.3011,33.941 46.5,30.5C 50.4364,25.5689 55.4364,24.2356 61.5,26.5C 65.1308,31.5701 65.4642,36.9034 62.5,42.5C 59.4127,44.017 56.0794,44.6837 52.5,44.5 Z"/></g>
<g><path style="opacity:0.996" fill="#6a31c1" d="M 46.5,30.5 C 46.3011,33.941 46.8011,37.2744 48,40.5C 49.0674,41.1905 50.2341,41.6905 51.5,42C 52.2524,42.6708 52.5858,43.5041 52.5,44.5C 49.3252,44.1601 47.1585,42.4934 46,39.5C 45.1955,36.3035 45.3622,33.3035 46.5,30.5 Z"/></g>
<g><path style="opacity:0.267" fill="#6539b4" d="M 6.5,64.5 C 6.5,72.8333 6.5,81.1667 6.5,89.5C 13.1667,89.5 19.8333,89.5 26.5,89.5C 19.6866,90.4912 12.6866,90.8245 5.5,90.5C 5.17364,81.6506 5.50698,72.9839 6.5,64.5 Z"/></g>
<g><path style="opacity:1" fill="#ea3b3c" d="M 26.5,101.5 C 26.17,108.2 26.5033,114.866 27.5,121.5C 29.3957,122.639 30.3957,121.973 30.5,119.5C 31.934,132.216 36.6007,143.716 44.5,154C 44.1501,155.257 43.4835,155.591 42.5,155C 27.9517,139.86 22.6183,122.027 26.5,101.5 Z"/></g>
<g><path style="opacity:0.516" fill="#e14443" d="M 41.5,91.5 C 42.4952,103.655 42.8286,115.989 42.5,128.5C 51.1667,128.5 59.8333,128.5 68.5,128.5C 68.1714,115.989 68.5048,103.655 69.5,91.5C 69.5,104.167 69.5,116.833 69.5,129.5C 60.1667,129.5 50.8333,129.5 41.5,129.5C 41.5,116.833 41.5,104.167 41.5,91.5 Z"/></g>
</svg>
